HIERARCHY
ROOT Hips
{
	OFFSET -0.001795 -0.223333 0.028219
	CHANNELS 6 Xposition Yposition Zposition Zrotation Yrotation Xrotation 
	JOINT LeftUpLeg
	{
		OFFSET 0.069520 -0.091406 -0.006815
		CHANNELS 3 Zrotation Yrotation Xrotation
		JOINT LeftLeg
		{
			OFFSET 0.034277 -0.375199 -0.004496
			CHANNELS 3 Zrotation Yrotation Xrotation
			JOINT LeftFoot
			{
				OFFSET -0.013596 -0.397961 -0.043693
				CHANNELS 3 Zrotation Yrotation Xrotation
				JOINT LeftToe
				{
					OFFSET 0.026358 -0.055791 0.119288
					CHANNELS 3 Zrotation Yrotation Xrotation
					End Site
					{
						OFFSET 0.000000 0.000000 0.000000
					}
				}
			}
		}
	}
	JOINT RightUpLeg
	{
		OFFSET -0.067670 -0.090522 -0.004320
		CHANNELS 3 Zrotation Yrotation Xrotation
		JOINT RightLeg
		{
			OFFSET -0.038290 -0.382569 -0.008850
			CHANNELS 3 Zrotation Yrotation Xrotation
			JOINT RightFoot
			{
				OFFSET 0.015774 -0.398415 -0.042312
				CHANNELS 3 Zrotation Yrotation Xrotation
				JOINT RightToe
				{
					OFFSET -0.025372 -0.048144 0.123348
					CHANNELS 3 Zrotation Yrotation Xrotation
					End Site
					{
						OFFSET 0.000000 0.000000 0.000000
					}
				}
			}
		}
	}
	JOINT Spine
	{
		OFFSET -0.002533 0.108963 -0.026696
		CHANNELS 3 Zrotation Yrotation Xrotation
		JOINT Spine1
		{
			OFFSET 0.005487 0.135180 0.001092
			CHANNELS 3 Zrotation Yrotation Xrotation
			JOINT Spine2
			{
				OFFSET 0.001457 0.052922 0.025425
				CHANNELS 3 Zrotation Yrotation Xrotation
				JOINT Neck
				{
					OFFSET -0.002778 0.213870 -0.042857
					CHANNELS 3 Zrotation Yrotation Xrotation
					JOINT Head
					{
						OFFSET 0.005152 0.064970 0.051349
						CHANNELS 3 Zrotation Yrotation Xrotation
						End Site
						{
							OFFSET 0.000000 0.000000 0.000000
						}
					}
				}
				JOINT LeftShoulder
				{
					OFFSET 0.078845 0.121749 -0.034090
					CHANNELS 3 Zrotation Yrotation Xrotation
					JOINT LeftArm
					{
						OFFSET 0.090977 0.030469 -0.008868
						CHANNELS 3 Zrotation Yrotation Xrotation
						JOINT LeftForeArm
						{
							OFFSET 0.259612 -0.012772 -0.027456
							CHANNELS 3 Zrotation Yrotation Xrotation
							JOINT LeftHand
							{
								OFFSET 0.249234 0.008986 -0.001171
								CHANNELS 3 Zrotation Yrotation Xrotation
								End Site
								{
									OFFSET 0.000000 0.000000 0.000000
								}
							}
						}
					}
				}
				JOINT RightShoulder
				{
					OFFSET -0.081759 0.118833 -0.038615
					CHANNELS 3 Zrotation Yrotation Xrotation
					JOINT RightArm
					{
						OFFSET -0.096012 0.032551 -0.009143
						CHANNELS 3 Zrotation Yrotation Xrotation
						JOINT RightForeArm
						{
							OFFSET -0.253742 -0.013329 -0.021401
							CHANNELS 3 Zrotation Yrotation Xrotation
							JOINT RightHand
							{
								OFFSET -0.255298 0.007772 -0.005559
								CHANNELS 3 Zrotation Yrotation Xrotation
								End Site
								{
									OFFSET 0.000000 0.000000 0.000000
								}
							}
						}
					}
				}
			}
		}
	}
}
MOTION
Frames: 7
Frame Time: 0.050000
-0.021820 0.952843 -0.008594 -3.087809 6.571136 6.401523 9.252214 -0.414563 2.856511 -7.019430 0.384829 -7.987978 19.069885 30.499237 26.536528 0.000000 0.000000 0.000000 -1.910208 1.165819 -14.170549 2.679787 -0.267362 5.761152 0.503432 -3.159204 12.469301 0.000000 0.000000 0.000000 3.337500 -1.417207 15.930203 9.031447 -1.109962 -27.304659 -5.677587 -17.918754 29.677484 -1.551953 0.091926 -30.485800 0.000000 0.000000 0.000000 -21.472822 -8.972084 8.087847 -37.375167 -34.634988 2.902989 13.196682 -56.396265 -1.592887 0.000000 0.000000 0.000000 5.889642 11.783874 3.166335 54.101492 22.323270 1.218464 12.518766 48.464140 5.916414 0.000000 0.000000 0.000000 
-0.022143 0.952951 -0.005588 -2.882664 6.386594 6.778022 8.987131 -0.395618 2.738575 -6.924418 0.384272 -8.071900 19.137459 30.524411 26.835959 0.000000 0.000000 0.000000 -2.024362 1.130660 -13.759481 2.674399 -0.271032 4.522945 0.450696 -3.351672 12.700648 0.000000 0.000000 0.000000 3.150271 -1.343704 15.511160 8.429312 -0.947303 -27.705135 -5.333370 -17.737719 30.247643 -0.532355 -0.483722 -30.344984 0.000000 0.000000 0.000000 -22.454807 -6.733216 6.971408 -40.247912 -28.700404 1.152815 1.536442 -62.814548 5.757844 0.000000 0.000000 0.000000 6.409911 10.439072 2.592311 54.340699 20.197133 0.268820 12.013176 47.748645 5.612091 0.000000 0.000000 0.000000 
-0.022542 0.952536 -0.002197 -2.821874 5.760106 6.705056 8.922786 -0.369694 3.220133 -7.034081 0.397723 -8.171222 19.488667 30.810496 27.203765 0.000000 0.000000 0.000000 -1.733011 1.151636 -13.545051 2.217321 -0.194746 4.293871 0.567474 -3.271298 12.860007 0.000000 0.000000 0.000000 2.848667 -1.310545 15.914630 8.543485 -1.028940 -27.097348 -5.164423 -16.615197 29.889213 1.482072 -1.459494 -29.864745 0.000000 0.000000 0.000000 -23.000927 -3.957212 5.168031 -42.033011 -20.516165 -1.527862 -20.803421 -69.285756 22.593449 0.000000 0.000000 0.000000 7.856625 8.555173 1.725744 53.897569 17.735663 -0.611854 12.682088 48.877955 6.112773 0.000000 0.000000 0.000000 
-0.022477 0.951472 -0.000063 -2.616504 5.204593 6.854996 8.815873 -0.347201 3.354091 -7.397963 0.415416 -8.225212 19.846926 31.141192 27.360328 0.000000 0.000000 0.000000 -2.088601 1.153777 -13.930061 2.445029 -0.218905 4.868150 0.718171 -2.907901 12.335802 0.000000 0.000000 0.000000 2.829708 -1.320366 16.224844 8.494013 -0.996414 -27.391938 -5.507778 -15.715224 30.470780 2.500339 -1.896728 -30.344313 0.000000 0.000000 0.000000 -22.996352 -1.787646 3.719560 -42.856493 -13.557700 -3.913110 -47.790566 -71.937244 45.099359 0.000000 0.000000 0.000000 8.209735 7.340131 1.250525 54.433558 16.373657 -1.241586 13.983612 49.947478 6.981828 0.000000 0.000000 0.000000 
-0.021455 0.951381 -0.000074 -2.638903 4.785615 6.951661 8.972964 -0.351377 2.987985 -7.873371 0.458236 -7.637728 20.175611 31.454467 27.480087 0.000000 0.000000 0.000000 -2.189770 1.195459 -14.554632 2.522153 -0.218434 5.704459 0.871203 -2.653388 12.265021 0.000000 0.000000 0.000000 2.805418 -1.352166 16.754878 8.671596 -1.025888 -27.506334 -5.680309 -15.092401 30.737144 3.434705 -2.301135 -30.754753 0.000000 0.000000 0.000000 -23.381336 -0.460107 2.863202 -42.725704 -10.259073 -5.021085 -60.538184 -70.965883 54.987785 0.000000 0.000000 0.000000 8.755419 7.115096 1.121646 54.332151 16.067122 -1.334816 13.414319 49.821576 6.776234 0.000000 0.000000 0.000000 
-0.019652 0.951926 -0.002192 -2.512214 5.330160 6.716235 9.086366 -0.369006 3.109277 -8.358128 0.449751 -7.779843 19.740317 31.074371 27.139499 0.000000 0.000000 0.000000 -2.452784 1.186455 -15.013244 2.570297 -0.225873 6.786651 0.562866 -3.263718 12.567666 0.000000 0.000000 0.000000 3.031938 -1.464837 17.442532 9.053893 -1.081493 -27.710929 -5.960208 -15.223583 30.615673 2.545739 -1.836949 -30.194706 0.000000 0.000000 0.000000 -23.411632 -1.053129 3.185947 -42.070512 -12.168393 -4.369824 -49.706380 -71.374733 46.053289 0.000000 0.000000 0.000000 8.526866 7.585487 1.376599 54.792928 17.245674 -0.811946 11.927931 48.275450 5.964472 0.000000 0.000000 0.000000 
-0.017338 0.953045 -0.005256 -2.323188 5.883618 6.573630 8.853811 -0.365741 2.681721 -8.424821 0.460931 -7.241014 19.353563 30.742124 26.835194 0.000000 0.000000 0.000000 -3.144021 1.100190 -15.027451 3.088878 -0.327113 6.935761 0.460049 -3.512297 13.023092 0.000000 0.000000 0.000000 3.374859 -1.574591 17.776777 9.062955 -1.066456 -27.873825 -5.840494 -15.736557 30.121219 0.178735 -0.601939 -29.624746 0.000000 0.000000 0.000000 -23.712886 -3.085777 4.496619 -40.991522 -18.384447 -2.316830 -19.805573 -68.384460 21.217460 0.000000 0.000000 0.000000 7.921540 9.472147 2.213556 55.726893 19.799290 0.363073 9.396191 45.626295 4.611888 0.000000 0.000000 0.000000 
